<?xml version="1.0" encoding="UTF-8" standalone="no"?>
<!DOCTYPE svg PUBLIC "-//W3C//DTD SVG 1.1//EN"
 "http://www.w3.org/Graphics/SVG/1.1/DTD/svg11.dtd">
<!-- Generated by graphviz version 10.0.1 (0)
 -->
<!-- Title: calls Pages: 1 -->
<svg width="207pt" height="404pt"
 viewBox="0.00 0.00 207.16 404.00" xmlns="http://www.w3.org/2000/svg" xmlns:xlink="http://www.w3.org/1999/xlink">
<g id="graph0" class="graph" transform="scale(1 1) rotate(0) translate(4 400)">
<title>calls</title>
<polygon fill="white" stroke="none" points="-4,4 -4,-400 203.16,-400 203.16,4 -4,4"/>
<!-- main -->
<g id="node1" class="node">
<title>main</title>
<ellipse fill="none" stroke="black" cx="101" cy="-378" rx="35.95" ry="18"/>
<text text-anchor="middle" x="101" y="-373.32" font-family="Times,serif" font-size="14.00">main</text>
</g>
<!-- a -->
<g id="node2" class="node">
<title>a</title>
<ellipse fill="none" stroke="black" cx="62" cy="-306" rx="27" ry="18"/>
<text text-anchor="middle" x="62" y="-301.32" font-family="Times,serif" font-size="14.00">a</text>
</g>
<!-- main&#45;&gt;a -->
<g id="edge1" class="edge">
<title>main&#45;&gt;a</title>
<path fill="none" stroke="black" d="M91.76,-360.41C87.18,-352.19 81.54,-342.06 76.4,-332.85"/>
<polygon fill="black" stroke="black" points="79.57,-331.34 71.64,-324.31 73.45,-334.75 79.57,-331.34"/>
</g>
<!-- emit -->
<g id="node3" class="node">
<title>emit</title>
<ellipse fill="none" stroke="black" cx="145" cy="-306" rx="33.85" ry="18"/>
<text text-anchor="middle" x="145" y="-301.32" font-family="Times,serif" font-size="14.00">emit</text>
</g>
<!-- main&#45;&gt;emit -->
<g id="edge2" class="edge">
<title>main&#45;&gt;emit</title>
<path fill="none" stroke="black" d="M111.43,-360.41C116.58,-352.22 122.91,-342.14 128.69,-332.95"/>
<polygon fill="black" stroke="black" points="131.48,-335.08 133.84,-324.75 125.56,-331.36 131.48,-335.08"/>
</g>
<!-- b -->
<g id="node4" class="node">
<title>b</title>
<ellipse fill="none" stroke="black" cx="54" cy="-234" rx="27" ry="18"/>
<text text-anchor="middle" x="54" y="-229.32" font-family="Times,serif" font-size="14.00">b</text>
</g>
<!-- a&#45;&gt;b -->
<g id="edge3" class="edge">
<title>a&#45;&gt;b</title>
<path fill="none" stroke="black" d="M60.02,-287.7C59.19,-280.41 58.2,-271.73 57.26,-263.54"/>
<polygon fill="black" stroke="black" points="60.74,-263.15 56.13,-253.61 53.78,-263.94 60.74,-263.15"/>
</g>
<!-- sethook -->
<g id="node8" class="node">
<title>sethook</title>
<ellipse fill="none" stroke="black" cx="149" cy="-234" rx="50.16" ry="18"/>
<text text-anchor="middle" x="149" y="-229.32" font-family="Times,serif" font-size="14.00">sethook</text>
</g>
<!-- emit&#45;&gt;sethook -->
<g id="edge8" class="edge">
<title>emit&#45;&gt;sethook</title>
<path fill="none" stroke="black" d="M145.99,-287.7C146.41,-280.41 146.9,-271.73 147.37,-263.54"/>
<polygon fill="black" stroke="black" points="150.86,-263.8 147.94,-253.62 143.87,-263.4 150.86,-263.8"/>
</g>
<!-- c -->
<g id="node5" class="node">
<title>c</title>
<ellipse fill="none" stroke="black" cx="27" cy="-162" rx="27" ry="18"/>
<text text-anchor="middle" x="27" y="-157.32" font-family="Times,serif" font-size="14.00">c</text>
</g>
<!-- b&#45;&gt;c -->
<g id="edge4" class="edge">
<title>b&#45;&gt;c</title>
<path fill="none" stroke="black" d="M47.46,-216.05C44.48,-208.32 40.87,-198.96 37.52,-190.27"/>
<polygon fill="black" stroke="black" points="40.88,-189.27 34.02,-181.2 34.35,-191.79 40.88,-189.27"/>
</g>
<!-- print -->
<g id="node6" class="node">
<title>print</title>
<ellipse fill="none" stroke="black" cx="54" cy="-18" rx="35.95" ry="18"/>
<text text-anchor="middle" x="54" y="-13.32" font-family="Times,serif" font-size="14.00">print</text>
</g>
<!-- b&#45;&gt;print -->
<g id="edge5" class="edge">
<title>b&#45;&gt;print</title>
<path fill="none" stroke="black" d="M57.65,-215.91C59.68,-205.57 61.98,-192.09 63,-180 67.03,-132.17 67.03,-119.83 63,-72 62.32,-63.97 61.08,-55.33 59.73,-47.4"/>
<polygon fill="black" stroke="black" points="63.17,-46.79 57.93,-37.58 56.29,-48.05 63.17,-46.79"/>
</g>
<!-- d -->
<g id="node7" class="node">
<title>d</title>
<ellipse fill="none" stroke="black" cx="27" cy="-90" rx="27" ry="18"/>
<text text-anchor="middle" x="27" y="-85.33" font-family="Times,serif" font-size="14.00">d</text>
</g>
<!-- c&#45;&gt;d -->
<g id="edge6" class="edge">
<title>c&#45;&gt;d</title>
<path fill="none" stroke="black" d="M27,-143.7C27,-136.41 27,-127.73 27,-119.54"/>
<polygon fill="black" stroke="black" points="30.5,-119.62 27,-109.62 23.5,-119.62 30.5,-119.62"/>
</g>
<!-- d&#45;&gt;print -->
<g id="edge7" class="edge">
<title>d&#45;&gt;print</title>
<path fill="none" stroke="black" d="M33.54,-72.05C36.52,-64.32 40.13,-54.96 43.48,-46.27"/>
<polygon fill="black" stroke="black" points="46.65,-47.79 46.98,-37.2 40.12,-45.27 46.65,-47.79"/>
</g>
</g>
</svg>
